<svg id="visual" viewBox="0 0 900 600" width="900" height="600" xmlns="http://www.w3.org/2000/svg"
     xmlns:xlink="http://www.w3.org/1999/xlink" version="1.1">
    <rect x="0" y="0" width="900" height="600" fill="#001220"></rect>
    <path d="M0 430L15 438.3C30 446.7 60 463.3 90 468.8C120 474.3 150 468.7 180 466.3C210 464 240 465 270 464.2C300 463.3 330 460.7 360 459.8C390 459 420 460 450 460.7C480 461.3 510 461.7 540 463.2C570 464.7 600 467.3 630 464.5C660 461.7 690 453.3 720 454.8C750 456.3 780 467.7 810 468.5C840 469.3 870 459.7 885 454.8L900 450L900 601L885 601C870 601 840 601 810 601C780 601 750 601 720 601C690 601 660 601 630 601C600 601 570 601 540 601C510 601 480 601 450 601C420 601 390 601 360 601C330 601 300 601 270 601C240 601 210 601 180 601C150 601 120 601 90 601C60 601 30 601 15 601L0 601Z"
          fill="#fa7268"></path>
    <path d="M0 491L15 487C30 483 60 475 90 472.2C120 469.3 150 471.7 180 476.8C210 482 240 490 270 494.2C300 498.3 330 498.7 360 492C390 485.3 420 471.7 450 466.3C480 461 510 464 540 469.7C570 475.3 600 483.7 630 483.8C660 484 690 476 720 474.8C750 473.7 780 479.3 810 477.7C840 476 870 467 885 462.5L900 458L900 601L885 601C870 601 840 601 810 601C780 601 750 601 720 601C690 601 660 601 630 601C600 601 570 601 540 601C510 601 480 601 450 601C420 601 390 601 360 601C330 601 300 601 270 601C240 601 210 601 180 601C150 601 120 601 90 601C60 601 30 601 15 601L0 601Z"
          fill="#f16367"></path>
    <path d="M0 513L15 513.3C30 513.7 60 514.3 90 510.2C120 506 150 497 180 497.3C210 497.7 240 507.3 270 508.5C300 509.7 330 502.3 360 501.8C390 501.3 420 507.7 450 510.2C480 512.7 510 511.3 540 505.2C570 499 600 488 630 485.8C660 483.7 690 490.3 720 496C750 501.7 780 506.3 810 508C840 509.7 870 508.3 885 507.7L900 507L900 601L885 601C870 601 840 601 810 601C780 601 750 601 720 601C690 601 660 601 630 601C600 601 570 601 540 601C510 601 480 601 450 601C420 601 390 601 360 601C330 601 300 601 270 601C240 601 210 601 180 601C150 601 120 601 90 601C60 601 30 601 15 601L0 601Z"
          fill="#e85467"></path>
    <path d="M0 525L15 524.2C30 523.3 60 521.7 90 523C120 524.3 150 528.7 180 530.3C210 532 240 531 270 530.7C300 530.3 330 530.7 360 527.5C390 524.3 420 517.7 450 513.2C480 508.7 510 506.3 540 508.5C570 510.7 600 517.3 630 519.8C660 522.3 690 520.7 720 517.8C750 515 780 511 810 511.2C840 511.3 870 515.7 885 517.8L900 520L900 601L885 601C870 601 840 601 810 601C780 601 750 601 720 601C690 601 660 601 630 601C600 601 570 601 540 601C510 601 480 601 450 601C420 601 390 601 360 601C330 601 300 601 270 601C240 601 210 601 180 601C150 601 120 601 90 601C60 601 30 601 15 601L0 601Z"
          fill="#de4467"></path>
    <path d="M0 554L15 551.8C30 549.7 60 545.3 90 542.7C120 540 150 539 180 539.8C210 540.7 240 543.3 270 545.2C300 547 330 548 360 547.3C390 546.7 420 544.3 450 544.3C480 544.3 510 546.7 540 546.5C570 546.3 600 543.7 630 541C660 538.3 690 535.7 720 536.7C750 537.7 780 542.3 810 543.7C840 545 870 543 885 542L900 541L900 601L885 601C870 601 840 601 810 601C780 601 750 601 720 601C690 601 660 601 630 601C600 601 570 601 540 601C510 601 480 601 450 601C420 601 390 601 360 601C330 601 300 601 270 601C240 601 210 601 180 601C150 601 120 601 90 601C60 601 30 601 15 601L0 601Z"
          fill="#d23467"></path>
    <path d="M0 557L15 558.2C30 559.3 60 561.7 90 562C120 562.3 150 560.7 180 560.7C210 560.7 240 562.3 270 564.8C300 567.3 330 570.7 360 571.5C390 572.3 420 570.7 450 569.7C480 568.7 510 568.3 540 568C570 567.7 600 567.3 630 567C660 566.7 690 566.3 720 567C750 567.7 780 569.3 810 569C840 568.7 870 566.3 885 565.2L900 564L900 601L885 601C870 601 840 601 810 601C780 601 750 601 720 601C690 601 660 601 630 601C600 601 570 601 540 601C510 601 480 601 450 601C420 601 390 601 360 601C330 601 300 601 270 601C240 601 210 601 180 601C150 601 120 601 90 601C60 601 30 601 15 601L0 601Z"
          fill="#c62368"></path>
</svg>