<svg id="visual" viewBox="0 0 900 600" width="900" height="600" xmlns="http://www.w3.org/2000/svg"
     xmlns:xlink="http://www.w3.org/1999/xlink" version="1.1">
    <rect x="0" y="0" width="900" height="600" fill="#001220"></rect>
    <path d="M0 352L21.5 364.7C43 377.3 86 402.7 128.8 407.5C171.7 412.3 214.3 396.7 257.2 395.2C300 393.7 343 406.3 385.8 412.2C428.7 418 471.3 417 514.2 410.5C557 404 600 392 642.8 389.8C685.7 387.7 728.3 395.3 771.2 404.2C814 413 857 423 878.5 428L900 433L900 601L878.5 601C857 601 814 601 771.2 601C728.3 601 685.7 601 642.8 601C600 601 557 601 514.2 601C471.3 601 428.7 601 385.8 601C343 601 300 601 257.2 601C214.3 601 171.7 601 128.8 601C86 601 43 601 21.5 601L0 601Z"
          fill="#fa7268"></path>
    <path d="M0 447L21.5 441.5C43 436 86 425 128.8 429.5C171.7 434 214.3 454 257.2 453.3C300 452.7 343 431.3 385.8 423.7C428.7 416 471.3 422 514.2 431.7C557 441.3 600 454.7 642.8 457.8C685.7 461 728.3 454 771.2 451.2C814 448.3 857 449.7 878.5 450.3L900 451L900 601L878.5 601C857 601 814 601 771.2 601C728.3 601 685.7 601 642.8 601C600 601 557 601 514.2 601C471.3 601 428.7 601 385.8 601C343 601 300 601 257.2 601C214.3 601 171.7 601 128.8 601C86 601 43 601 21.5 601L0 601Z"
          fill="#ef5f67"></path>
    <path d="M0 480L21.5 481.2C43 482.3 86 484.7 128.8 488.7C171.7 492.7 214.3 498.3 257.2 490C300 481.7 343 459.3 385.8 455.7C428.7 452 471.3 467 514.2 467.7C557 468.3 600 454.7 642.8 454.2C685.7 453.7 728.3 466.3 771.2 467C814 467.7 857 456.3 878.5 450.7L900 445L900 601L878.5 601C857 601 814 601 771.2 601C728.3 601 685.7 601 642.8 601C600 601 557 601 514.2 601C471.3 601 428.7 601 385.8 601C343 601 300 601 257.2 601C214.3 601 171.7 601 128.8 601C86 601 43 601 21.5 601L0 601Z"
          fill="#e34c67"></path>
    <path d="M0 535L21.5 528.8C43 522.7 86 510.3 128.8 504.8C171.7 499.3 214.3 500.7 257.2 507.5C300 514.3 343 526.7 385.8 526.7C428.7 526.7 471.3 514.3 514.2 505.3C557 496.3 600 490.7 642.8 496.7C685.7 502.7 728.3 520.3 771.2 522.7C814 525 857 512 878.5 505.5L900 499L900 601L878.5 601C857 601 814 601 771.2 601C728.3 601 685.7 601 642.8 601C600 601 557 601 514.2 601C471.3 601 428.7 601 385.8 601C343 601 300 601 257.2 601C214.3 601 171.7 601 128.8 601C86 601 43 601 21.5 601L0 601Z"
          fill="#d53867"></path>
    <path d="M0 562L21.5 559.7C43 557.3 86 552.7 128.8 550.3C171.7 548 214.3 548 257.2 544.5C300 541 343 534 385.8 530.5C428.7 527 471.3 527 514.2 533.8C557 540.7 600 554.3 642.8 557.2C685.7 560 728.3 552 771.2 550C814 548 857 552 878.5 554L900 556L900 601L878.5 601C857 601 814 601 771.2 601C728.3 601 685.7 601 642.8 601C600 601 557 601 514.2 601C471.3 601 428.7 601 385.8 601C343 601 300 601 257.2 601C214.3 601 171.7 601 128.8 601C86 601 43 601 21.5 601L0 601Z"
          fill="#c62368"></path>
</svg>